<?xml version="1.0" encoding="iso-8859-1"?>
<!-- Generator: Adobe Illustrator 19.0.0, SVG Export Plug-In . SVG Version: 6.00 Build 0)  -->
<svg version="1.1" id="Layer_1" xmlns="http://www.w3.org/2000/svg" xmlns:xlink="http://www.w3.org/1999/xlink" x="0px" y="0px"
	 viewBox="0 0 512 512" style="enable-background:new 0 0 512 512;" xml:space="preserve">
<path style="fill:#EFF2FA;" d="M361.931,0H79.448c-4.875,0-8.828,3.953-8.828,8.828v494.345c0,4.875,3.953,8.828,8.828,8.828
	h353.103c4.875,0,8.828-3.953,8.828-8.828V79.448L361.931,0z"/>
<g>
	<path style="fill:#D7DEED;" d="M441.379,79.448h-70.621c-4.875,0-8.828-3.953-8.828-8.828V0L441.379,79.448z"/>
	<path style="fill:#D7DEED;" d="M158.897,282.483h-35.31c-4.875,0-8.828-3.953-8.828-8.828v-35.31c0-4.875,3.953-8.828,8.828-8.828
		h35.31c4.875,0,8.828,3.953,8.828,8.828v35.31C167.724,278.53,163.772,282.483,158.897,282.483z"/>
</g>
<path style="fill:#AFB9D2;" d="M291.31,247.172h-79.448c-4.875,0-8.828-3.953-8.828-8.828c0-4.875,3.953-8.828,8.828-8.828h79.448
	c4.875,0,8.828,3.953,8.828,8.828C300.138,243.22,296.185,247.172,291.31,247.172z"/>
<path style="fill:#C7CFE2;" d="M326.621,282.483H211.862c-4.875,0-8.828-3.953-8.828-8.828s3.953-8.828,8.828-8.828h114.759
	c4.875,0,8.828,3.953,8.828,8.828S331.496,282.483,326.621,282.483z"/>
<path style="fill:#D7DEED;" d="M158.897,203.034h-35.31c-4.875,0-8.828-3.953-8.828-8.828v-35.31c0-4.875,3.953-8.828,8.828-8.828
	h35.31c4.875,0,8.828,3.953,8.828,8.828v35.31C167.724,199.082,163.772,203.034,158.897,203.034z"/>
<path style="fill:#AFB9D2;" d="M326.621,167.724H211.862c-4.875,0-8.828-3.953-8.828-8.828c0-4.875,3.953-8.828,8.828-8.828h114.759
	c4.875,0,8.828,3.953,8.828,8.828C335.448,163.772,331.496,167.724,326.621,167.724z"/>
<path style="fill:#D7DEED;" d="M158.897,123.586h-35.31c-4.875,0-8.828-3.953-8.828-8.828v-35.31c0-4.875,3.953-8.828,8.828-8.828
	h35.31c4.875,0,8.828,3.953,8.828,8.828v35.31C167.724,119.634,163.772,123.586,158.897,123.586z"/>
<path style="fill:#AFB9D2;" d="M291.31,88.276h-79.448c-4.875,0-8.828-3.953-8.828-8.828c0-4.875,3.953-8.828,8.828-8.828h79.448
	c4.875,0,8.828,3.953,8.828,8.828C300.138,84.323,296.185,88.276,291.31,88.276z"/>
<path style="fill:#C7CFE2;" d="M326.621,123.586H211.862c-4.875,0-8.828-3.953-8.828-8.828c0-4.875,3.953-8.828,8.828-8.828h114.759
	c4.875,0,8.828,3.953,8.828,8.828C335.448,119.634,331.496,123.586,326.621,123.586z"/>
<path style="fill:#D7DEED;" d="M158.897,441.379h-35.31c-4.875,0-8.828-3.953-8.828-8.828v-35.31c0-4.875,3.953-8.828,8.828-8.828
	h35.31c4.875,0,8.828,3.953,8.828,8.828v35.31C167.724,437.427,163.772,441.379,158.897,441.379z"/>
<path style="fill:#AFB9D2;" d="M291.31,406.069h-79.448c-4.875,0-8.828-3.953-8.828-8.828c0-4.875,3.953-8.828,8.828-8.828h79.448
	c4.875,0,8.828,3.953,8.828,8.828C300.138,402.116,296.185,406.069,291.31,406.069z"/>
<path style="fill:#C7CFE2;" d="M326.621,441.379H211.862c-4.875,0-8.828-3.953-8.828-8.828s3.953-8.828,8.828-8.828h114.759
	c4.875,0,8.828,3.953,8.828,8.828S331.496,441.379,326.621,441.379z"/>
<path style="fill:#D7DEED;" d="M158.897,361.931h-35.31c-4.875,0-8.828-3.953-8.828-8.828v-35.31c0-4.875,3.953-8.828,8.828-8.828
	h35.31c4.875,0,8.828,3.953,8.828,8.828v35.31C167.724,357.978,163.772,361.931,158.897,361.931z"/>
<path style="fill:#AFB9D2;" d="M326.621,326.621H211.862c-4.875,0-8.828-3.953-8.828-8.828s3.953-8.828,8.828-8.828h114.759
	c4.875,0,8.828,3.953,8.828,8.828S331.496,326.621,326.621,326.621z"/>
<g>
	<path style="fill:#C7CFE2;" d="M397.241,203.034H211.862c-4.875,0-8.828-3.953-8.828-8.828s3.953-8.828,8.828-8.828h185.379
		c4.875,0,8.828,3.953,8.828,8.828S402.116,203.034,397.241,203.034z"/>
	<path style="fill:#C7CFE2;" d="M397.241,361.931H211.862c-4.875,0-8.828-3.953-8.828-8.828s3.953-8.828,8.828-8.828h185.379
		c4.875,0,8.828,3.953,8.828,8.828S402.116,361.931,397.241,361.931z"/>
</g>
<g>
	<path style="fill:#82889D;" d="M132.414,114.759c-2.259,0-4.518-0.862-6.241-2.586l-17.655-17.655
		c-3.448-3.448-3.448-9.035,0-12.483c3.448-3.448,9.035-3.448,12.483,0l11.413,11.415l29.069-29.069
		c3.448-3.448,9.035-3.448,12.483,0c3.448,3.448,3.448,9.035,0,12.483l-35.31,35.31
		C136.931,113.897,134.673,114.759,132.414,114.759z"/>
	<path style="fill:#82889D;" d="M132.414,273.655c-2.259,0-4.518-0.862-6.241-2.586l-17.655-17.655
		c-3.448-3.448-3.448-9.035,0-12.483c3.448-3.448,9.035-3.448,12.483,0l11.413,11.415l29.069-29.069
		c3.448-3.448,9.035-3.448,12.483,0c3.448,3.448,3.448,9.035,0,12.483l-35.31,35.31
		C136.931,272.793,134.673,273.655,132.414,273.655z"/>
	<path style="fill:#82889D;" d="M132.414,353.103c-2.259,0-4.518-0.862-6.241-2.586l-17.655-17.655
		c-3.448-3.448-3.448-9.035,0-12.483c3.448-3.448,9.035-3.448,12.483,0l11.413,11.415l29.069-29.069
		c3.448-3.448,9.035-3.448,12.483,0s3.448,9.035,0,12.483l-35.31,35.31C136.931,352.242,134.673,353.103,132.414,353.103z"/>
</g>
<g>
</g>
<g>
</g>
<g>
</g>
<g>
</g>
<g>
</g>
<g>
</g>
<g>
</g>
<g>
</g>
<g>
</g>
<g>
</g>
<g>
</g>
<g>
</g>
<g>
</g>
<g>
</g>
<g>
</g>
</svg>
